<mxfile host="app.diagrams.net" modified="2023-12-19T03:57:54.532Z" agent="Mozilla/5.0 (Macintosh; Intel Mac OS X 10_15_7) AppleWebKit/605.1.15 (KHTML, like Gecko) Version/16.5 Safari/605.1.15" version="22.1.11" etag="-qCRM7f0yTYkw1mW1NDZ" type="github">
  <diagram name="Page-1" id="zIR9JgzCYptSGL04QLfy">
    <mxGraphModel>
      <root>
        <mxCell id="0" />
        <mxCell id="1" parent="0" />
      </root>
    </mxGraphModel>
  </diagram>
</mxfile>
